<mxfile host="app.diagrams.net" modified="2023-05-06T15:06:30.025Z" agent="Mozilla/5.0 (Windows NT 10.0; Win64; x64; rv:109.0) Gecko/20100101 Firefox/112.0" etag="RfQ2IAK8jU7YNqga2OI8" version="21.2.4" type="github">
  <diagram name="Page-1" id="HSz8bE3_Batindej38Pt">
    <mxGraphModel dx="882" dy="513" grid="1" gridSize="10" guides="1" tooltips="1" connect="1" arrows="1" fold="1" page="1" pageScale="1" pageWidth="827" pageHeight="1169" math="0" shadow="0">
      <root>
        <mxCell id="0" />
        <mxCell id="1" parent="0" />
        <mxCell id="JezmN_XPwfHkkfkj2IRX-8" style="edgeStyle=orthogonalEdgeStyle;rounded=0;orthogonalLoop=1;jettySize=auto;html=1;entryX=0.5;entryY=0;entryDx=0;entryDy=0;" parent="1" source="JezmN_XPwfHkkfkj2IRX-1" target="JezmN_XPwfHkkfkj2IRX-2" edge="1">
          <mxGeometry relative="1" as="geometry">
            <Array as="points">
              <mxPoint x="400" y="120" />
              <mxPoint x="175" y="120" />
            </Array>
          </mxGeometry>
        </mxCell>
        <mxCell id="JezmN_XPwfHkkfkj2IRX-9" style="edgeStyle=orthogonalEdgeStyle;rounded=0;orthogonalLoop=1;jettySize=auto;html=1;entryX=0.5;entryY=0;entryDx=0;entryDy=0;" parent="1" source="JezmN_XPwfHkkfkj2IRX-1" target="JezmN_XPwfHkkfkj2IRX-4" edge="1">
          <mxGeometry relative="1" as="geometry" />
        </mxCell>
        <mxCell id="JezmN_XPwfHkkfkj2IRX-10" style="edgeStyle=orthogonalEdgeStyle;rounded=0;orthogonalLoop=1;jettySize=auto;html=1;entryX=0.5;entryY=0;entryDx=0;entryDy=0;" parent="1" source="JezmN_XPwfHkkfkj2IRX-1" target="JezmN_XPwfHkkfkj2IRX-6" edge="1">
          <mxGeometry relative="1" as="geometry" />
        </mxCell>
        <mxCell id="JezmN_XPwfHkkfkj2IRX-11" style="edgeStyle=orthogonalEdgeStyle;rounded=0;orthogonalLoop=1;jettySize=auto;html=1;" parent="1" source="JezmN_XPwfHkkfkj2IRX-1" target="JezmN_XPwfHkkfkj2IRX-5" edge="1">
          <mxGeometry relative="1" as="geometry">
            <Array as="points">
              <mxPoint x="400" y="120" />
              <mxPoint x="625" y="120" />
            </Array>
          </mxGeometry>
        </mxCell>
        <mxCell id="JezmN_XPwfHkkfkj2IRX-1" value="Observation" style="rounded=1;whiteSpace=wrap;html=1;fontStyle=1;fillColor=#f5f5f5;fontColor=#333333;strokeColor=#666666;" parent="1" vertex="1">
          <mxGeometry x="320" y="20" width="160" height="60" as="geometry" />
        </mxCell>
        <mxCell id="JezmN_XPwfHkkfkj2IRX-14" style="edgeStyle=orthogonalEdgeStyle;rounded=0;orthogonalLoop=1;jettySize=auto;html=1;entryX=0.5;entryY=0;entryDx=0;entryDy=0;" parent="1" source="JezmN_XPwfHkkfkj2IRX-2" target="-7eKnW9B377uRWEN0kxl-1" edge="1">
          <mxGeometry relative="1" as="geometry">
            <Array as="points">
              <mxPoint x="175" y="260" />
              <mxPoint x="400" y="260" />
              <mxPoint x="400" y="280" />
            </Array>
          </mxGeometry>
        </mxCell>
        <mxCell id="JezmN_XPwfHkkfkj2IRX-2" value="&lt;div&gt;Algorithm 1:&lt;/div&gt;&lt;div&gt;&lt;span style=&quot;font-weight: normal;&quot;&gt;Isolation&lt;br&gt;&lt;/span&gt;&lt;/div&gt;&lt;div&gt;&lt;span style=&quot;font-weight: normal;&quot;&gt;Forest&lt;/span&gt;&lt;br&gt;&lt;/div&gt;" style="shape=process;whiteSpace=wrap;html=1;backgroundOutline=1;fontStyle=1;fillColor=#f5f5f5;fontColor=#333333;strokeColor=#666666;" parent="1" vertex="1">
          <mxGeometry x="110" y="160" width="130" height="60" as="geometry" />
        </mxCell>
        <mxCell id="JezmN_XPwfHkkfkj2IRX-15" style="edgeStyle=orthogonalEdgeStyle;rounded=0;orthogonalLoop=1;jettySize=auto;html=1;entryX=0.5;entryY=0;entryDx=0;entryDy=0;" parent="1" source="JezmN_XPwfHkkfkj2IRX-4" target="-7eKnW9B377uRWEN0kxl-1" edge="1">
          <mxGeometry relative="1" as="geometry" />
        </mxCell>
        <mxCell id="JezmN_XPwfHkkfkj2IRX-4" value="&lt;div&gt;Algorithm 2:&lt;/div&gt;&lt;div&gt;&lt;span style=&quot;font-weight: normal;&quot;&gt;Robust Covariance&lt;/span&gt;&lt;/div&gt;&lt;div&gt;&lt;span style=&quot;font-weight: normal;&quot;&gt;Estimation&lt;/span&gt;&lt;br&gt;&lt;/div&gt;" style="shape=process;whiteSpace=wrap;html=1;backgroundOutline=1;fontStyle=1;fillColor=#f5f5f5;fontColor=#333333;strokeColor=#666666;" parent="1" vertex="1">
          <mxGeometry x="260" y="160" width="130" height="60" as="geometry" />
        </mxCell>
        <mxCell id="JezmN_XPwfHkkfkj2IRX-18" style="edgeStyle=orthogonalEdgeStyle;rounded=0;orthogonalLoop=1;jettySize=auto;html=1;entryX=0.5;entryY=0;entryDx=0;entryDy=0;" parent="1" source="JezmN_XPwfHkkfkj2IRX-5" target="-7eKnW9B377uRWEN0kxl-1" edge="1">
          <mxGeometry relative="1" as="geometry">
            <Array as="points">
              <mxPoint x="625" y="260" />
              <mxPoint x="400" y="260" />
              <mxPoint x="400" y="280" />
            </Array>
          </mxGeometry>
        </mxCell>
        <mxCell id="JezmN_XPwfHkkfkj2IRX-5" value="&lt;div&gt;Algorithm 4:&lt;/div&gt;&lt;div&gt;&lt;span style=&quot;font-weight: normal;&quot;&gt;Local Outlier &lt;br&gt;&lt;/span&gt;&lt;/div&gt;&lt;div&gt;&lt;span style=&quot;font-weight: normal;&quot;&gt;Factor&lt;/span&gt;&lt;br&gt;&lt;/div&gt;" style="shape=process;whiteSpace=wrap;html=1;backgroundOutline=1;fontStyle=1;fillColor=#f5f5f5;fontColor=#333333;strokeColor=#666666;" parent="1" vertex="1">
          <mxGeometry x="560" y="160" width="130" height="60" as="geometry" />
        </mxCell>
        <mxCell id="JezmN_XPwfHkkfkj2IRX-17" value="" style="edgeStyle=orthogonalEdgeStyle;rounded=0;orthogonalLoop=1;jettySize=auto;html=1;" parent="1" source="-7eKnW9B377uRWEN0kxl-1" target="JezmN_XPwfHkkfkj2IRX-13" edge="1">
          <mxGeometry relative="1" as="geometry" />
        </mxCell>
        <mxCell id="JezmN_XPwfHkkfkj2IRX-6" value="&lt;div&gt;Algorithm 3:&lt;/div&gt;&lt;div&gt;&lt;span style=&quot;font-weight: normal;&quot;&gt;One-Class&lt;/span&gt;&lt;/div&gt;&lt;div&gt;&lt;span style=&quot;font-weight: normal;&quot;&gt;SVM&lt;/span&gt;&lt;br&gt;&lt;/div&gt;" style="shape=process;whiteSpace=wrap;html=1;backgroundOutline=1;fontStyle=1;fillColor=#f5f5f5;fontColor=#333333;strokeColor=#666666;" parent="1" vertex="1">
          <mxGeometry x="410" y="160" width="130" height="60" as="geometry" />
        </mxCell>
        <mxCell id="JezmN_XPwfHkkfkj2IRX-22" value="No" style="edgeStyle=orthogonalEdgeStyle;rounded=0;orthogonalLoop=1;jettySize=auto;html=1;" parent="1" source="JezmN_XPwfHkkfkj2IRX-13" target="JezmN_XPwfHkkfkj2IRX-21" edge="1">
          <mxGeometry relative="1" as="geometry" />
        </mxCell>
        <mxCell id="JezmN_XPwfHkkfkj2IRX-23" value="Yes" style="edgeStyle=orthogonalEdgeStyle;rounded=0;orthogonalLoop=1;jettySize=auto;html=1;" parent="1" source="JezmN_XPwfHkkfkj2IRX-13" target="JezmN_XPwfHkkfkj2IRX-20" edge="1">
          <mxGeometry relative="1" as="geometry" />
        </mxCell>
        <mxCell id="JezmN_XPwfHkkfkj2IRX-13" value="Score &amp;gt; Threshold" style="rhombus;whiteSpace=wrap;html=1;fontStyle=1;fillColor=#fff2cc;strokeColor=#d6b656;" parent="1" vertex="1">
          <mxGeometry x="320" y="400" width="160" height="80" as="geometry" />
        </mxCell>
        <mxCell id="JezmN_XPwfHkkfkj2IRX-20" value="Anomaly" style="rounded=1;whiteSpace=wrap;html=1;fontStyle=1;fillColor=#f8cecc;strokeColor=#b85450;" parent="1" vertex="1">
          <mxGeometry x="120" y="420" width="120" height="40" as="geometry" />
        </mxCell>
        <mxCell id="JezmN_XPwfHkkfkj2IRX-21" value="Normal" style="rounded=1;whiteSpace=wrap;html=1;fontStyle=1;fillColor=#d5e8d4;strokeColor=#82b366;" parent="1" vertex="1">
          <mxGeometry x="560" y="420" width="120" height="40" as="geometry" />
        </mxCell>
        <mxCell id="-7eKnW9B377uRWEN0kxl-3" value="" style="edgeStyle=orthogonalEdgeStyle;rounded=0;orthogonalLoop=1;jettySize=auto;html=1;" edge="1" parent="1" source="JezmN_XPwfHkkfkj2IRX-6" target="-7eKnW9B377uRWEN0kxl-1">
          <mxGeometry relative="1" as="geometry">
            <mxPoint x="475" y="220" as="sourcePoint" />
            <mxPoint x="400" y="380" as="targetPoint" />
          </mxGeometry>
        </mxCell>
        <mxCell id="-7eKnW9B377uRWEN0kxl-1" value="&lt;div&gt;&lt;b&gt;Weighted &lt;br&gt;&lt;/b&gt;&lt;/div&gt;&lt;div&gt;&lt;b&gt;Average&lt;/b&gt;&lt;/div&gt;" style="rounded=1;whiteSpace=wrap;html=1;fillColor=#f5f5f5;strokeColor=#666666;fontColor=#333333;" vertex="1" parent="1">
          <mxGeometry x="320" y="300" width="160" height="60" as="geometry" />
        </mxCell>
      </root>
    </mxGraphModel>
  </diagram>
</mxfile>
